<?xml version="1.0" encoding="UTF-8"?>
<!DOCTYPE svg PUBLIC "-//W3C//DTD SVG 1.1//EN" "http://www.w3.org/Graphics/SVG/1.1/DTD/svg11.dtd">
<!-- Creator: CorelDRAW -->
<svg xmlns="http://www.w3.org/2000/svg" xml:space="preserve" width="2048px" height="2048px" style="shape-rendering:geometricPrecision; text-rendering:geometricPrecision; image-rendering:optimizeQuality; fill-rule:evenodd; clip-rule:evenodd"
viewBox="0 0 2048 2048"
 xmlns:xlink="http://www.w3.org/1999/xlink">
 <defs>
  <style type="text/css">
   <![CDATA[
    .fil6 {fill:none}
    .fil3 {fill:#404040}
    .fil0 {fill:#53e3a6}
    .fil2 {fill:#f6d365}
    .fil1 {fill:#f69d3c}
    .fil5 {fill:#ebf8e1}
    .fil4 {fill:white}
   ]]>
  </style>
 </defs>
 <g id="Layer_x0020_1">
  <metadata id="CorelCorpID_0Corel-Layer"/>
  <g id="_424873904">
   <path id="_424874960" class="fil0" d="M1752.49 799.631c13.3961,-17.8134 -1.4811,-33.2693 -24.0425,-48.0839l-34.4953 0.522048 -39.1536 36.5764c32.563,3.66142 71.6741,28.8331 97.6914,10.9854z"/>
   <path id="_424874912" class="fil1" d="M1536.87 907.952c169.859,381.635 33.8469,622.024 -204.145,733.052 -115.815,54.0296 -255.93,76.356 -395.872,68.5276 -139.725,-7.81654 -279.895,-45.6638 -396.078,-111.993 -257.094,-146.776 -398.461,-428.98 -169.652,-829.764l-0.0389764 -0.112205c8.55946,-14.9953 27.6579,-20.211 42.652,-11.6504 5.16733,2.94921 9.17363,7.15276 11.8547,12.0071 3.77244,5.86654 6.93308,10.7055 9.46654,14.4969 90.9709,136.146 190.98,214.756 299.469,238.302 101.372,22.0016 212.182,-3.73583 331.888,-75.1961 -33.1831,-26.8831 -61.2437,-59.85 -82.4788,-97.2072 -28.3973,-49.9583 -44.6185,-107.624 -44.6185,-168.949 0,-94.5792 38.3386,-180.209 100.324,-242.196 61.9855,-61.9843 147.617,-100.323 242.196,-100.323 81.4949,0 156.437,28.5874 215.371,76.3075 57.4099,46.4882 99.4855,111.239 117.456,185.454l-20.2866 220.99c-7.67717,17.0492 -16.7599,33.4311 -27.1051,49.0004 -9.17599,13.8095 -19.3441,26.9256 -30.4004,39.2528z"/>
   <path id="_424874432" class="fil2" d="M1789.17 625.093c2.41063,-6.2941 -7.8189,-9.37205 -15.1382,-1.89095 -46.3843,47.4248 -115.843,24.7618 -159.373,-24.4937 -25.5768,17.6752 -17.0728,70.5544 -27.4937,101.818 -31.1516,26.4969 -66.8245,106.55 8.87363,101.02 150.252,-10.9795 210.232,-76.8036 193.132,-176.453z"/>
   <ellipse id="_424874072" class="fil3" transform="matrix(1.1566 -0.536895 0.536895 1.1566 1463.05 576.681)" rx="36.3177" ry="60.0745"/>
   <ellipse id="_424873616" class="fil4" transform="matrix(0.613038 -0.225498 0.225498 0.613038 1479.88 587.919)" rx="36.3177" ry="60.0745"/>
   <path id="_424873448" class="fil5" d="M727.909 1315.53c-112.656,-23.0528 -173.437,-85.8237 -198.79,-175.72 129.861,60.463 257.103,34.4705 491.711,-70.4504 223.657,-51.0815 425.327,122.665 308.236,341.007 -175.186,222.425 -518.928,177.581 -716.007,-2.95748l135.282 2.82992c-91.9737,-9.75001 -149.359,-46.6796 -183.966,-101.498 57.1985,15.0213 111.79,17.6811 163.534,6.78898z"/>
  </g>
 </g>
 <rect class="fil6" width="2048" height="2048"/>
</svg>
